<?xml version="1.0" encoding="UTF-8"?>
<svg width="486px" height="386px" viewBox="0 0 486 386" version="1.1" xmlns="http://www.w3.org/2000/svg" xmlns:xlink="http://www.w3.org/1999/xlink">
    <!-- Generator: Sketch 52.1 (67048) - http://www.bohemiancoding.com/sketch -->
    <title>Combined Shape</title>
    <desc>Created with Sketch.</desc>
    <g id="Page-1" stroke="none" stroke-width="1" fill="none" fill-rule="evenodd">
        <path d="M173.44,200.25 L209.08,200.25 L209.08,235.89 L173.44,235.89 L173.44,200.25 Z M223.12,200.25 L258.76,200.25 L258.76,235.89 L223.12,235.89 L223.12,200.25 Z M173.44,247.98 L209.08,247.98 L209.08,283.62 L173.44,283.62 L173.44,247.98 Z M223.12,247.98 L258.76,247.98 L258.76,283.62 L223.12,283.62 L223.12,247.98 Z M436.38,119.36 L387.1,122.99 L403.05,133.17 L436.36,119.93 L434.48,126.39 L426.41,129.23 L433.14,132.58 L429.91,138.23 L421.3,132.58 L410.45,137.89 L421.03,144.65 L414.57,148.15 L402.65,141.71 L383.35,151.16 L423.99,154.66 L420.49,162.2 L399.5,160.59 L411.61,173.24 L405.96,177.01 L388.46,160.86 L363.43,160.05 L312.06,179.97 L312.06,187.82 L312.06,303.98 L300.18,303.98 L300.18,192.74 L223.91,116.46 L216.1,108.65 L132.02,192.74 L132.02,303.98 L120.14,303.98 L120.14,187.82 L207.7,100.25 L190.81,83.36 L190.81,66.56 L201.97,77.72 L213.52,80.06 L204.37,61.49 L205.45,55.57 L209.22,55.57 L222.95,81.68 L235.6,84.1 L214.34,45.61 L218.92,42.65 L246.37,87.06 L269.52,91.37 L223.76,36.19 L228.87,30 L244.48,46.42 L246.36,16 L254.7,11.42 L252.28,56.1 L271.39,76.56 L271.66,39.42 L256.05,28.65 L256.59,19.5 L270.59,30 L270.59,6.31 L275.7,2.81 L281.35,2.81 L281.35,41.57 L294.54,22.19 L285.12,2.81 L289.43,0.39 L298.31,15.73 L305.85,0.39 L313.39,0.39 L301.01,22.19 L311.24,41.57 L328.2,0.39 L334.39,0.39 L316.36,49.92 L329.82,73.61 L342.47,41.58 L338.7,3.63 L344.62,2.82 L348.39,28.66 L357,8.47 L362.38,10.62 C362.38,10.62 319.85,128.24 320.66,128.24 C321.46,128.24 358.34,97.82 358.34,97.82 L370.18,59.33 L370.18,14.11 L376.1,16.53 L376.1,34.56 L381.48,20.83 L387.94,25.41 L382.02,49.9 L400.59,34.83 L405.43,40.21 L376.09,67.4 L373.4,84.9 L412.16,50.99 L417.54,57.18 L399.78,74.41 L428.04,73.33 L428.04,81.14 L391.16,82.22 L358.32,114.79 L394.93,113.17 L428.04,85.18 L432.08,87.6 L432.08,93.89 L408.39,113.17 L436.38,111.55 L436.38,119.36 Z M282.15,105.9 L270.57,102.87 L237.88,113.64 L254.62,130.38 L300.37,139.61 L300.38,132.68 L282.15,105.9 Z M211.65,87.4 L216.1,91.85 L230.6,106.35 L258.56,99.71 L211.65,87.4 Z M265.23,140.98 L300.33,176.08 L300.36,150.98 L265.23,140.98 Z M309.25,127.58 L324.66,84.09 L297.77,30.26 L284.31,53.68 L284.31,89.75 L309.25,127.58 Z M393.72,136.89 L374.19,126.35 L343.51,126.89 L312.06,151 L312.06,169.34 L393.72,136.89 Z M12.44,349.73 C16.16,349.73 19.97,350.62 22.65,352.16 L22.65,355.13 C19.97,353.45 16.11,352.5 12.64,352.5 C7.93,352.5 3.97,354.18 3.97,358.45 C3.97,368.16 25.08,364.05 25.08,376.54 C25.08,383.08 19.18,385.56 12.79,385.51 C8.38,385.51 4.27,384.42 0.95,382.59 L0.95,379.67 C4.52,381.75 8.58,382.74 12.6,382.74 C17.7,382.74 22.11,381.2 22.11,376.74 C22.11,366.48 1,370.69 1,358.55 C1,352.5 6.55,349.73 12.44,349.73 Z M52.37,349.73 C55.84,349.73 59.26,350.52 62.08,352.06 L62.08,355.03 C59.55,353.39 56.18,352.5 52.81,352.5 C45.23,352.5 37.3,357.41 37.3,367.96 C37.25,377.97 45.38,382.73 52.96,382.73 C56.63,382.73 59.9,381.84 62.42,380.2 L62.42,383.12 C59.6,384.66 56.13,385.5 52.36,385.5 C43.69,385.5 34.27,379.6 34.32,367.96 C34.33,355.87 43.5,349.73 52.37,349.73 Z M102.09,350.27 L102.09,372.57 C102.09,382.23 95.6,385.5 87.92,385.5 C80.19,385.5 73.7,382.23 73.7,372.57 L73.7,350.27 L76.62,350.27 L76.62,372.47 C76.62,380.05 81.43,382.73 87.92,382.73 C94.41,382.73 99.17,380.05 99.17,372.47 L99.17,350.27 L102.09,350.27 Z M132.11,349.73 C144.2,349.73 150.15,358.8 150.15,367.62 C150.15,376.44 144.2,385.51 132.11,385.51 C120.02,385.51 114.07,376.44 114.07,367.62 C114.07,358.8 120.01,349.73 132.11,349.73 Z M132.11,352.5 C121.95,352.5 117.05,360.08 117.05,367.61 C117.05,375.14 121.96,382.72 132.11,382.72 C142.27,382.72 147.17,375.14 147.17,367.61 C147.17,360.08 142.26,352.5 132.11,352.5 Z M166,350.27 L166,382.13 L186.07,382.13 L186.07,384.95 L163.08,384.95 L163.08,350.26 L166,350.26 L166,350.27 Z M192.31,384.96 L207.77,350.27 L211.09,350.27 L226.5,384.96 L223.33,384.96 L219.22,375.64 L199.65,375.64 L195.49,384.96 L192.31,384.96 Z M200.78,372.87 L218.02,372.87 L209.84,354.39 C209.69,353.99 209.54,353.65 209.39,353.3 C209.24,353.65 209.09,353.99 208.94,354.39 L200.78,372.87 Z M281.91,350.27 L281.91,384.96 L278.99,384.96 L278.99,355.92 L265.31,376.14 L263.48,376.14 L249.8,355.92 L249.8,384.96 L246.88,384.96 L246.88,350.27 L249.36,350.27 L264.42,372.52 L279.43,350.27 L281.91,350.27 Z M311.97,349.73 C324.06,349.73 330.01,358.8 330.01,367.62 C330.01,376.44 324.06,385.51 311.97,385.51 C299.88,385.51 293.93,376.44 293.93,367.62 C293.93,358.8 299.88,349.73 311.97,349.73 Z M311.97,352.5 C301.81,352.5 296.91,360.08 296.91,367.61 C296.91,375.14 301.82,382.72 311.97,382.72 C322.13,382.72 327.03,375.14 327.03,367.61 C327.04,360.08 322.13,352.5 311.97,352.5 Z M358.05,349.73 C361.52,349.73 364.94,350.52 367.76,352.06 L367.76,355.03 C365.23,353.39 361.86,352.5 358.49,352.5 C350.91,352.5 342.98,357.41 342.98,367.96 C342.93,377.97 351.06,382.73 358.64,382.73 C362.31,382.73 365.58,381.84 368.1,380.2 L368.1,383.12 C365.28,384.66 361.81,385.5 358.04,385.5 C349.37,385.5 339.95,379.6 340,367.96 C340.01,355.87 349.18,349.73 358.05,349.73 Z M376.02,384.96 L391.48,350.27 L394.8,350.27 L410.21,384.96 L407.04,384.96 L402.93,375.64 L383.36,375.64 L379.2,384.96 L376.02,384.96 Z M384.5,372.87 L401.74,372.87 L393.56,354.39 C393.41,353.99 393.26,353.65 393.11,353.3 C392.96,353.65 392.81,353.99 392.66,354.39 L384.5,372.87 Z M436.36,350.27 L436.36,375.44 C436.36,382.43 431.55,385.45 425.36,385.45 C421.89,385.45 418.67,384.71 416.44,383.32 L416.44,380.4 C418.67,381.89 421.64,382.63 424.86,382.63 C429.82,382.63 433.43,380.7 433.43,375.35 L433.43,353.1 L422.73,353.1 L422.73,350.28 L436.36,350.28 L436.36,350.27 Z M467.57,349.73 C479.66,349.73 485.61,358.8 485.61,367.62 C485.61,376.44 479.66,385.51 467.57,385.51 C455.48,385.51 449.53,376.44 449.53,367.62 C449.53,358.8 455.48,349.73 467.57,349.73 Z M467.57,352.5 C457.41,352.5 452.51,360.08 452.51,367.61 C452.51,375.14 457.42,382.72 467.57,382.72 C477.73,382.72 482.63,375.14 482.63,367.61 C482.63,360.08 477.73,352.5 467.57,352.5 Z" id="Combined-Shape" fill="#F7F7F7"></path>
    </g>
</svg>