<svg xmlns="http://www.w3.org/2000/svg" width="65" height="33" viewBox="0 0 65 33">
  <g fill="none" fill-rule="evenodd" transform="translate(-.055)">
    <rect width="64" height="32" x=".13" y=".762" fill="#F5D602" rx="5"/>
    <path fill="#0066B2" fill-rule="nonzero" d="M5.85546875,13.50625 L9.11796875,13.50625 C9.83046875,13.50625 10.3554688,13.68125 10.7179687,14.01875 C11.0679687,14.35625 11.2429687,14.83125 11.2429687,15.45625 C11.2429687,16.09375 11.0554687,16.59375 10.6679688,16.95625 C10.2804688,17.31875 9.69296875,17.49375 8.90546875,17.49375 L7.83046875,17.49375 L7.83046875,19.84375 L5.85546875,19.84375 L5.85546875,13.50625 L5.85546875,13.50625 Z M7.83046875,16.20625 L8.30546875,16.20625 C8.68046875,16.20625 8.94296875,16.14375 9.10546875,16.00625 C9.25546875,15.86875 9.33046875,15.70625 9.33046875,15.50625 C9.33046875,15.30625 9.26796875,15.14375 9.13046875,14.99375 C8.99296875,14.85625 8.74296875,14.78125 8.38046875,14.78125 L7.81796875,14.78125 L7.81796875,16.20625 L7.83046875,16.20625 Z M11.4804688,17.55625 C11.4804688,16.85625 11.7179688,16.28125 12.1929688,15.81875 C12.6679688,15.36875 13.3054688,15.13125 14.1054688,15.13125 C15.0304688,15.13125 15.7179688,15.39375 16.1929687,15.93125 C16.5679687,16.35625 16.7554687,16.89375 16.7554687,17.51875 C16.7554687,18.23125 16.5179687,18.80625 16.0554687,19.25625 C15.5804687,19.70625 14.9429687,19.93125 14.1054688,19.93125 C13.3679687,19.93125 12.7679687,19.74375 12.3179688,19.36875 C11.7679687,18.91875 11.4804688,18.31875 11.4804688,17.55625 L11.4804688,17.55625 Z M13.2429687,17.55625 C13.2429687,17.96875 13.3304687,18.26875 13.4929687,18.46875 C13.6554687,18.66875 13.8679687,18.76875 14.1179687,18.76875 C14.3679687,18.76875 14.5804687,18.66875 14.7429687,18.48125 C14.9054687,18.29375 14.9929687,17.98125 14.9929687,17.55625 C14.9929687,17.15625 14.9054687,16.85625 14.7429687,16.66875 C14.5804687,16.46875 14.3804687,16.38125 14.1304687,16.38125 C13.8679687,16.38125 13.6554687,16.48125 13.4929687,16.68125 C13.3304687,16.85625 13.2429687,17.15625 13.2429687,17.55625 Z M17.0804688,18.56875 L18.8304688,18.40625 C18.9054687,18.61875 19.0054687,18.76875 19.1304687,18.85625 C19.2554687,18.94375 19.4304688,18.99375 19.6554687,18.99375 C19.8929688,18.99375 20.0804688,18.94375 20.2054688,18.84375 C20.3054688,18.76875 20.3554688,18.68125 20.3554688,18.56875 C20.3554688,18.44375 20.2929688,18.34375 20.1554687,18.26875 C20.0554687,18.21875 19.8054687,18.15625 19.3929688,18.08125 C18.7804687,17.96875 18.3554688,17.88125 18.1179688,17.78125 C17.8804687,17.69375 17.6804688,17.53125 17.5179688,17.31875 C17.3554688,17.10625 17.2679688,16.85625 17.2679688,16.58125 C17.2679688,16.28125 17.3554688,16.01875 17.5304687,15.79375 C17.7054688,15.56875 17.9429687,15.40625 18.2554687,15.30625 C18.5679687,15.20625 18.9804688,15.14375 19.4929688,15.14375 C20.0429688,15.14375 20.4429687,15.18125 20.7054688,15.26875 C20.9679687,15.35625 21.1804688,15.48125 21.3554688,15.65625 C21.5304687,15.83125 21.6804687,16.06875 21.7929688,16.36875 L20.1179687,16.53125 C20.0804687,16.38125 20.0054687,16.28125 19.9054687,16.20625 C19.7679688,16.11875 19.6054688,16.06875 19.4054687,16.06875 C19.2054688,16.06875 19.0554687,16.10625 18.9679687,16.16875 C18.8804687,16.23125 18.8304688,16.33125 18.8304688,16.43125 C18.8304688,16.54375 18.8929688,16.63125 19.0054687,16.68125 C19.1179688,16.74375 19.3679688,16.79375 19.7554687,16.83125 C20.3429687,16.89375 20.7804687,16.99375 21.0679687,17.10625 C21.3554688,17.21875 21.5679687,17.39375 21.7179687,17.60625 C21.8679687,17.81875 21.9429687,18.06875 21.9429687,18.33125 C21.9429687,18.59375 21.8679688,18.85625 21.7054688,19.10625 C21.5429688,19.35625 21.2929688,19.55625 20.9429687,19.70625 C20.5929687,19.85625 20.1304687,19.93125 19.5304687,19.93125 C18.6929687,19.93125 18.0929687,19.80625 17.7304688,19.56875 C17.3679687,19.33125 17.1804687,19.00625 17.0804688,18.56875 L17.0804688,18.56875 Z M24.7054687,13.50625 L24.7054687,15.25625 L25.6804687,15.25625 L25.6804687,16.54375 L24.7054687,16.54375 L24.7054687,18.16875 C24.7054687,18.36875 24.7179687,18.49375 24.7679687,18.55625 C24.8304687,18.65625 24.9304687,18.70625 25.0679687,18.70625 C25.1929687,18.70625 25.3804687,18.66875 25.6179687,18.59375 L25.7429687,19.80625 C25.3054687,19.90625 24.9054687,19.94375 24.5179687,19.94375 C24.0804687,19.94375 23.7554687,19.89375 23.5429687,19.78125 C23.3304687,19.66875 23.1804687,19.49375 23.0804687,19.26875 C22.9804687,19.04375 22.9304687,18.66875 22.9304687,18.15625 L22.9304687,16.54375 L22.2804687,16.54375 L22.2804687,15.25625 L22.9304687,15.25625 L22.9304687,14.40625 L24.7054687,13.50625 L24.7054687,13.50625 Z M31.3929687,17.98125 L27.8554687,17.98125 C27.8929687,18.26875 27.9679687,18.46875 28.0804687,18.61875 C28.2554687,18.81875 28.4679687,18.91875 28.7429687,18.91875 C28.9179687,18.91875 29.0804687,18.88125 29.2304687,18.79375 C29.3304687,18.74375 29.4304687,18.64375 29.5429687,18.50625 L31.2804687,18.66875 C31.0179687,19.13125 30.6929687,19.45625 30.3179687,19.65625 C29.9429687,19.85625 29.4054687,19.95625 28.7054687,19.95625 C28.0929687,19.95625 27.6179687,19.86875 27.2679687,19.69375 C26.9179687,19.51875 26.6304687,19.24375 26.4054687,18.88125 C26.1804687,18.50625 26.0554687,18.06875 26.0554687,17.56875 C26.0554687,16.85625 26.2804687,16.26875 26.7429687,15.81875 C27.2054687,15.36875 27.8429687,15.15625 28.6554687,15.15625 C29.3179687,15.15625 29.8304687,15.25625 30.2179687,15.45625 C30.5929687,15.65625 30.8929687,15.94375 31.0929687,16.31875 C31.2929687,16.69375 31.3929687,17.19375 31.3929687,17.79375 L31.3929687,17.98125 L31.3929687,17.98125 Z M29.6054687,17.14375 C29.5679687,16.80625 29.4804687,16.55625 29.3304687,16.40625 C29.1804687,16.25625 28.9804687,16.18125 28.7429687,16.18125 C28.4679687,16.18125 28.2429687,16.29375 28.0679687,16.51875 C27.9554687,16.65625 27.8929687,16.86875 27.8679687,17.14375 L29.6054687,17.14375 L29.6054687,17.14375 Z M32.3679688,14.68125 L32.3679688,13.83125 L33.1179688,13.83125 L33.1179688,14.69375 L32.3679688,14.69375 L32.3679688,14.68125 Z M32.3679688,19.90625 L32.3679688,15.49375 L33.1179688,15.49375 L33.1179688,19.90625 L32.3679688,19.90625 Z M35.8929687,19.24375 L36.0054687,19.90625 C35.7929688,19.95625 35.6054688,19.96875 35.4429687,19.96875 C35.1679688,19.96875 34.9554687,19.93125 34.8179687,19.84375 C34.6804687,19.75625 34.5679687,19.64375 34.5054687,19.50625 C34.4429687,19.36875 34.4179688,19.06875 34.4179688,18.61875 L34.4179688,16.08125 L33.8679688,16.08125 L33.8679688,15.50625 L34.4179688,15.50625 L34.4179688,14.41875 L35.1554687,13.96875 L35.1554687,15.50625 L35.9054687,15.50625 L35.9054687,16.08125 L35.1554687,16.08125 L35.1554687,18.65625 C35.1554687,18.86875 35.1679688,19.00625 35.1929687,19.06875 C35.2179687,19.13125 35.2679687,19.18125 35.3179687,19.21875 C35.3804687,19.25625 35.4679687,19.26875 35.5679687,19.26875 C35.6429687,19.26875 35.7554687,19.26875 35.8929687,19.24375 Z M39.4929687,19.36875 C39.2179687,19.60625 38.9554687,19.76875 38.6929687,19.86875 C38.4429687,19.96875 38.1679688,20.01875 37.8679687,20.01875 C37.3804687,20.01875 37.0054687,19.90625 36.7554687,19.66875 C36.4929687,19.43125 36.3679687,19.13125 36.3679687,18.75625 C36.3679687,18.54375 36.4179687,18.34375 36.5179687,18.16875 C36.6179687,17.99375 36.7429687,17.84375 36.9054687,17.74375 C37.0679687,17.63125 37.2429687,17.55625 37.4429687,17.49375 C37.5929687,17.45625 37.8054687,17.41875 38.1054688,17.38125 C38.7054688,17.30625 39.1554687,17.21875 39.4429687,17.11875 L39.4429687,16.91875 C39.4429687,16.61875 39.3679687,16.39375 39.2304688,16.28125 C39.0429688,16.11875 38.7554687,16.03125 38.3804687,16.03125 C38.0304687,16.03125 37.7679688,16.09375 37.6054688,16.21875 C37.4429687,16.34375 37.3179687,16.55625 37.2304688,16.86875 L36.5054687,16.76875 C36.5679687,16.45625 36.6804687,16.20625 36.8304688,16.00625 C36.9804688,15.81875 37.2054688,15.66875 37.4929688,15.55625 C37.7804688,15.45625 38.1179688,15.40625 38.4929688,15.40625 C38.8679688,15.40625 39.1804688,15.45625 39.4054688,15.54375 C39.6429688,15.63125 39.8179688,15.74375 39.9304688,15.88125 C40.0429688,16.01875 40.1179688,16.18125 40.1679688,16.39375 C40.1929687,16.51875 40.2054688,16.75625 40.2054688,17.08125 L40.2054688,18.08125 C40.2054688,18.78125 40.2179688,19.21875 40.2554687,19.39375 C40.2929688,19.58125 40.3554688,19.75625 40.4429687,19.91875 L39.6679688,19.91875 C39.5679687,19.75625 39.5179688,19.58125 39.4929688,19.36875 L39.4929687,19.36875 Z M39.4304688,17.70625 C39.1554688,17.81875 38.7554688,17.90625 38.2054688,17.99375 C37.8929688,18.04375 37.6804688,18.09375 37.5554688,18.14375 C37.4304688,18.19375 37.3304688,18.28125 37.2554688,18.38125 C37.1804688,18.49375 37.1554688,18.60625 37.1554688,18.73125 C37.1554688,18.93125 37.2304688,19.09375 37.3804688,19.23125 C37.5304688,19.36875 37.7554688,19.43125 38.0429688,19.43125 C38.3304688,19.43125 38.5804688,19.36875 38.8054688,19.24375 C39.0304688,19.11875 39.1929688,18.94375 39.3054688,18.73125 C39.3804688,18.56875 39.4304688,18.31875 39.4304688,17.98125 L39.4304688,17.70625 L39.4304688,17.70625 Z M41.3304688,19.90625 L41.3304688,13.83125 L42.0804688,13.83125 L42.0804688,19.91875 L41.3304688,19.91875 L41.3304688,19.90625 Z M43.2429687,14.68125 L43.2429687,13.83125 L43.9929687,13.83125 L43.9929687,14.69375 L43.2429687,14.69375 L43.2429687,14.68125 Z M43.2429687,19.90625 L43.2429687,15.49375 L43.9929687,15.49375 L43.9929687,19.90625 L43.2429687,19.90625 Z M48.0054687,19.36875 C47.7304687,19.60625 47.4679687,19.76875 47.2054687,19.86875 C46.9554687,19.96875 46.6804687,20.01875 46.3804687,20.01875 C45.8929687,20.01875 45.5179687,19.90625 45.2679687,19.66875 C45.0054687,19.43125 44.8804687,19.13125 44.8804687,18.75625 C44.8804687,18.54375 44.9304687,18.34375 45.0304687,18.16875 C45.1304687,17.99375 45.2554687,17.84375 45.4179687,17.74375 C45.5804687,17.63125 45.7554687,17.55625 45.9554687,17.49375 C46.1054687,17.45625 46.3179687,17.41875 46.6179687,17.38125 C47.2179687,17.30625 47.6679687,17.21875 47.9554687,17.11875 L47.9554687,16.91875 C47.9554687,16.61875 47.8804687,16.39375 47.7429687,16.28125 C47.5554687,16.11875 47.2679687,16.03125 46.8929687,16.03125 C46.5429687,16.03125 46.2804687,16.09375 46.1179687,16.21875 C45.9554687,16.34375 45.8304687,16.55625 45.7429687,16.86875 L45.0179687,16.76875 C45.0804687,16.45625 45.1929687,16.20625 45.3429687,16.00625 C45.4929687,15.81875 45.7179687,15.66875 46.0054687,15.55625 C46.2929688,15.45625 46.6304687,15.40625 47.0054687,15.40625 C47.3804687,15.40625 47.6929687,15.45625 47.9179688,15.54375 C48.1554687,15.63125 48.3304688,15.74375 48.4429687,15.88125 C48.5554687,16.01875 48.6304687,16.18125 48.6804687,16.39375 C48.7054687,16.51875 48.7179687,16.75625 48.7179687,17.08125 L48.7179687,18.08125 C48.7179687,18.78125 48.7304688,19.21875 48.7679687,19.39375 C48.8054687,19.58125 48.8679687,19.75625 48.9554687,19.91875 L48.1804687,19.91875 C48.0679687,19.75625 48.0179687,19.58125 48.0054687,19.36875 L48.0054687,19.36875 Z M47.9429687,17.70625 C47.6679688,17.81875 47.2679688,17.90625 46.7179687,17.99375 C46.4054687,18.04375 46.1929687,18.09375 46.0679687,18.14375 C45.9429687,18.19375 45.8429687,18.28125 45.7679688,18.38125 C45.6929687,18.49375 45.6679688,18.60625 45.6679688,18.73125 C45.6679688,18.93125 45.7429688,19.09375 45.8929688,19.23125 C46.0429688,19.36875 46.2679688,19.43125 46.5554688,19.43125 C46.8429688,19.43125 47.0929688,19.36875 47.3179688,19.24375 C47.5429688,19.11875 47.7054688,18.94375 47.8179688,18.73125 C47.8929688,18.56875 47.9429688,18.31875 47.9429688,17.98125 L47.9429688,17.70625 L47.9429687,17.70625 Z M49.8554687,19.90625 L49.8554687,15.49375 L50.5304687,15.49375 L50.5304687,16.11875 C50.8554687,15.63125 51.3179687,15.39375 51.9304687,15.39375 C52.1929687,15.39375 52.4429687,15.44375 52.6679687,15.53125 C52.8929687,15.63125 53.0554687,15.75625 53.1679687,15.90625 C53.2804687,16.05625 53.3554687,16.24375 53.4054687,16.45625 C53.4304687,16.59375 53.4429687,16.83125 53.4429687,17.18125 L53.4429687,19.89375 L52.6929687,19.89375 L52.6929687,17.21875 C52.6929687,16.91875 52.6679687,16.68125 52.6054687,16.53125 C52.5429687,16.38125 52.4429687,16.25625 52.2929687,16.16875 C52.1429687,16.08125 51.9679687,16.03125 51.7679687,16.03125 C51.4554687,16.03125 51.1804687,16.13125 50.9429687,16.33125 C50.7179687,16.53125 50.5929687,16.91875 50.5929687,17.48125 L50.5929687,19.89375 L49.8554687,19.89375 L49.8554687,19.90625 Z M57.5929687,18.49375 L58.3679687,18.59375 C58.2429687,19.04375 58.0179687,19.39375 57.6929687,19.64375 C57.3679687,19.89375 56.9429687,20.01875 56.4304687,20.01875 C55.7804687,20.01875 55.2804687,19.81875 54.8929687,19.41875 C54.5179687,19.01875 54.3304687,18.46875 54.3304687,17.74375 C54.3304687,17.00625 54.5179687,16.43125 54.9054687,16.01875 C55.2929687,15.60625 55.7804687,15.40625 56.3929687,15.40625 C56.9804687,15.40625 57.4679687,15.60625 57.8429687,16.00625 C58.2179687,16.40625 58.4054687,16.96875 58.4054687,17.69375 L58.4054687,17.89375 L55.1054687,17.89375 C55.1304687,18.38125 55.2679687,18.74375 55.5179687,19.00625 C55.7679687,19.26875 56.0679687,19.39375 56.4429687,19.39375 C56.7179687,19.39375 56.9554687,19.31875 57.1429687,19.18125 C57.3304687,19.04375 57.4804687,18.80625 57.5929687,18.49375 L57.5929687,18.49375 Z M55.1429687,17.28125 L57.6054687,17.28125 C57.5679687,16.90625 57.4804687,16.63125 57.3179687,16.44375 C57.0804687,16.15625 56.7679687,16.00625 56.3929687,16.00625 C56.0554687,16.00625 55.7554687,16.11875 55.5304687,16.35625 C55.2929687,16.59375 55.1679687,16.90625 55.1429687,17.28125 L55.1429687,17.28125 Z"/>
  </g>
</svg>
