<svg id="4d0073c4-02f4-4a1a-8b51-acc65d24e6a3" data-name="Livello 1" xmlns="http://www.w3.org/2000/svg" viewBox="0 0 357.43 329.98" width="357px" height="329px">
  <title>logo-new</title>
  <path d="M136.21,158.54h29.31v29.31H136.21Zm40.85,0h29.31v29.31H177.06Zm-40.85,39.25h29.31V227.1H136.21Zm40.85,0h29.31V227.1H177.06ZM85.07,260A18.75,18.75,0,0,1,94,262.15v2.6a17.42,17.42,0,0,0-8.77-2.3c-4.12,0-7.59,1.47-7.59,5.2,0,8.51,18.48,4.9,18.48,15.84,0,5.72-5.17,7.9-10.76,7.85A21.66,21.66,0,0,1,75,288.78v-2.56a20.3,20.3,0,0,0,10.2,2.69c4.47,0,8.33-1.34,8.33-5.25,0-9-18.48-5.29-18.48-15.92,0-5.29,4.85-7.72,10-7.72m37.14,0a17.88,17.88,0,0,1,8.5,2v2.61a15.24,15.24,0,0,0-8.11-2.21C116,262.46,109,266.76,109,276c0,8.76,7.07,12.93,13.71,12.93a15.26,15.26,0,0,0,8.29-2.21v2.56a18.41,18.41,0,0,1-8.81,2.08c-7.59,0-15.83-5.17-15.79-15.36,0-10.59,8-16,15.78-16m46.61.47V280c0,8.46-5.68,11.33-12.41,11.33S144,288.47,144,280V260.49h2.56v19.43c0,6.64,4.21,9,9.89,9s9.85-2.34,9.85-9V260.49Zm27-.47c10.59,0,15.79,7.94,15.79,15.66s-5.2,15.66-15.79,15.66S180,283.4,180,275.68,185.2,260,195.79,260m0,2.43c-8.89,0-13.19,6.64-13.19,13.23s4.3,13.23,13.19,13.23S209,282.27,209,275.68s-4.3-13.23-13.19-13.23m29.53-2v27.9h17.57v2.47H222.76V260.49Zm27.86,30.37,13.53-30.37h2.91l13.49,30.37h-2.77l-3.6-8.16H259.6L256,290.86Zm7.42-10.59h15.1l-7.16-16.18c-.13-.34-.26-.65-.39-1-.13.3-.26.61-.39,1ZM105.67,299.13v30.36h-2.56V304.07l-12,17.7H89.53l-12-17.7v25.42H75V299.13h2.17l13.19,19.48,13.15-19.48Zm26.32-.48c10.59,0,15.79,7.94,15.79,15.66S142.58,330,132,330,116.2,322,116.2,314.31s5.2-15.66,15.79-15.66m0,2.43c-8.89,0-13.19,6.64-13.19,13.23s4.3,13.23,13.19,13.23,13.19-6.64,13.19-13.23-4.3-13.23-13.19-13.23m40.34-2.43a17.88,17.88,0,0,1,8.5,2v2.6a15.24,15.24,0,0,0-8.11-2.21c-6.64,0-13.58,4.3-13.58,13.54,0,8.76,7.07,12.93,13.71,12.93a15.26,15.26,0,0,0,8.29-2.21v2.56a18.52,18.52,0,0,1-8.81,2.08c-7.59,0-15.84-5.16-15.79-15.36,0-10.59,8-16,15.79-16m15.73,30.84,13.53-30.37h2.91L218,329.49h-2.78l-3.6-8.15H194.47l-3.64,8.15Zm7.42-10.58h15.1l-7.16-16.18c-.13-.35-.26-.66-.39-1-.13.3-.26.61-.39,1Zm45.41-19.78v22c0,6.11-4.21,8.76-9.64,8.76a15.21,15.21,0,0,1-7.8-1.86v-2.56a13.34,13.34,0,0,0,7.37,1.95c4.34,0,7.51-1.69,7.51-6.37V301.61H229v-2.47h11.93Zm27.32-.48c10.59,0,15.79,7.94,15.79,15.66S278.79,330,268.21,330s-15.79-7.94-15.79-15.66,5.2-15.66,15.79-15.66m0,2.43c-8.89,0-13.19,6.64-13.19,13.23s4.3,13.23,13.19,13.23,13.19-6.64,13.19-13.23-4.3-13.23-13.19-13.23M357.43,91.42l-23,1.33L353.89,76.9V71.72l-3.32-2-27.22,23-30.1,1.33,27-26.78,30.32-.89V60l-23.24.88,14.6-14.16-4.42-5.09L305.64,69.5l2.21-14.39L332,32.76l-4-4.43L312.72,40.72l4.87-20.14-5.31-3.76-4.43,11.29V13.28l-4.87-2V48.47l-9.74,31.65s-30.32,25-31,25S296.56,8.42,296.56,8.42l-4.43-1.77-7.08,16.6L282,2l-4.87.66,3.1,31.2L269.78,60.2,258.71,40.72,273.54,0h-5.09L254.51,33.86,246.1,17.93,256.28,0h-6.2l-6.2,12.62L236.58,0,233,2l7.75,15.93L229.93,33.85V2h-4.65l-4.21,2.88V24.34l-11.51-8.63-.44,7.53L222,32.09l-.22,30.54L206,45.81l2-36.74-6.86,3.76-1.55,25-12.84-13.5-4.21,5.09L220.18,74.8l-19-3.54L178.58,34.74l-3.76,2.43,17.49,31.65-10.4-2L170.63,45.36h-3.1l-.88,4.87,7.53,15.27-9.5-1.92L155.5,54.4V68.21L160.26,73l-8.94,8.94L88.26,145V249.62H98V149.05l61.5-61.5,8-8,78,69.46V249.64l27.28-11.8-17.51-83.71v-6.46l42.24-16.37L318,132l14.39,13.28,4.65-3.1-10-10.4,17.26,1.33,2.88-6.2L313.84,124l15.87-7.76,9.8,5.29,5.31-2.88-8.7-5.56,8.92-4.36,7.08,4.65,2.65-4.65L349.24,106l6.64-2.34,1.55-5.31L330,109.2l-13.11-8.38,40.5-3V91.42ZM176.31,75.22h0l-3.66-3.66,38.57,10.12-23,3.8Zm69.26,60.14L219.19,114l26.4,9.88Zm0-20.87-36-10.91L195.88,93.14l25.22-8.86,9.52,2.49,15,22Zm7.3-9.89L232.39,73.5V43.84l11.07-19.25,22.11,44.26Zm69.46,7.66L255.22,139V123.87l25.86-19.82,25.23-.44Z" style="fill: #fff"/>
</svg>
