<?xml version="1.0" encoding="utf-8"?>
<!-- Generator: Adobe Illustrator 23.0.2, SVG Export Plug-In . SVG Version: 6.00 Build 0)  -->
<svg version="1.1" id="Livello_1" xmlns="http://www.w3.org/2000/svg" xmlns:xlink="http://www.w3.org/1999/xlink" x="0px" y="0px"
	 viewBox="0 0 99.21 99.21" style="enable-background:new 0 0 99.21 99.21;" xml:space="preserve">
<style type="text/css">
	.st0{fill:#196B80;}
	.st1{fill:#FFCF42;}
	.st2{fill:#C64117;}
	.st3{fill:#B57982;}
	.st4{fill:#8AA5C7;}
</style>
<rect x="0" class="st4" width="99.21" height="99.21"/>
<g>
	<rect x="34.61" y="48.03" class="st1" width="7.14" height="7.14"/>
	<rect x="44.57" y="48.03" class="st1" width="7.14" height="7.14"/>
	<rect x="34.61" y="57.6" class="st1" width="7.14" height="7.14"/>
	<rect x="44.57" y="57.6" class="st1" width="7.14" height="7.14"/>
</g>
<path class="st1" d="M88.52,31.68L82.91,32l4.75-3.86v-1.26l-0.81-0.48L80.21,32l-7.33,0.32l6.58-6.52l7.39-0.22v-1.56l-5.66,0.21
	l3.56-3.45l-1.08-1.24l-7.77,6.79l0.54-3.51l5.88-5.45l-0.97-1.08l-3.72,3.02l1.19-4.91l-1.29-0.92l-1.08,2.75v-3.61l-1.19-0.49
	v9.06l-2.37,7.71c0,0-7.39,6.09-7.55,6.09c-0.16,0,8.36-23.57,8.36-23.57l-1.08-0.43l-1.73,4.04l-0.76-5.18l-1.19,0.16l0.76,7.6
	l-2.54,6.42l-2.7-4.75l3.61-9.92h-1.24l-3.4,8.25l-2.05-3.88l2.48-4.37h-1.51l-1.51,3.08L59.07,9.4l-0.86,0.49l1.89,3.88l-2.64,3.88
	V9.89h-1.13l-1.03,0.7v4.75l-2.8-2.1l-0.11,1.83l3.13,2.16l-0.05,7.44l-3.83-4.1l0.48-8.95l-1.67,0.92l-0.38,6.1l-3.13-3.29
	l-1.02,1.24l9.17,11.06l-4.64-0.86l-5.5-8.9l-0.92,0.59l4.26,7.71l-2.53-0.49L43,20.46h-0.76l-0.21,1.19l1.83,3.72l-2.31-0.47
	l-2.24-2.24v3.37l1.16,1.16l-2.18,2.18L22.93,44.73v25.5h2.38V45.72L40.3,30.73l1.94-1.94l18.99,16.93v24.51l6.65-2.88l-4.27-20.4
	v-1.57l10.29-3.99l5.02,0.16l3.51,3.24l1.13-0.76l-2.43-2.54l4.21,0.32l0.7-1.51l-8.14-0.7l3.87-1.89l2.39,1.29l1.29-0.7l-2.12-1.35
	l2.17-1.06l1.73,1.13l0.65-1.13l-1.35-0.67l1.62-0.57l0.38-1.29l-6.68,2.65l-3.19-2.04l9.87-0.73V31.68z M44.38,27.73L44.38,27.73
	l-0.89-0.89l9.4,2.47l-5.6,0.93L44.38,27.73z M61.26,42.38l-6.43-5.22l6.43,2.41L61.26,42.38z M61.27,37.3l-8.76-2.66l-3.35-2.54
	l6.15-2.16l2.32,0.61l3.65,5.37L61.27,37.3z M63.05,34.89l-5-7.58v-7.23l2.7-4.69l5.39,10.79L63.05,34.89z M79.97,36.75l-16.36,6.5
	v-3.68l6.3-4.83l6.15-0.11L79.97,36.75z"/>
<g>
	<path class="st1" d="M15.33,76.8c0.96,0,1.94,0.24,2.63,0.64v1.31c-0.68-0.46-1.62-0.71-2.52-0.7c-1.02,0-1.67,0.3-1.67,1.02
		c0,1.81,4.8,1.08,4.8,4.08c0,1.76-1.5,2.38-3.18,2.36c-1.13,0-2.15-0.26-2.97-0.73v-1.34c0.91,0.59,1.92,0.83,2.88,0.83
		c1.08,0,1.88-0.25,1.88-1.04c0-1.94-4.8-1.15-4.8-4.13C12.38,77.54,13.75,76.8,15.33,76.8z"/>
	<path class="st1" d="M27.43,76.8c2.95,0,4.41,2.14,4.41,4.35s-1.46,4.35-4.41,4.35c-2.96,0-4.41-2.13-4.41-4.35
		S24.47,76.8,27.43,76.8z M27.43,78.08c-2.03,0-3.02,1.46-3.02,3.07c0,1.61,1,3.07,3.02,3.07c2.04,0,3.02-1.46,3.02-3.07
		C30.45,79.55,29.47,78.08,27.43,78.08z"/>
	<path class="st1" d="M42.74,76.96v1.26h-4.43v2.46h4.08v1.27h-4.08v3.41h-1.37v-8.4H42.74z"/>
	<path class="st1" d="M53.59,76.96v1.26h-4.43v2.46h4.08v1.27h-4.08v3.41h-1.37v-8.4H53.59z"/>
	<path class="st1" d="M60.01,76.96v8.4h-1.37v-8.4H60.01z"/>
	<path class="st1" d="M69.52,76.8c2.95,0,4.41,2.14,4.41,4.35s-1.46,4.35-4.41,4.35c-2.96,0-4.41-2.13-4.41-4.35
		S66.56,76.8,69.52,76.8z M69.52,78.08c-2.03,0-3.02,1.46-3.02,3.07c0,1.61,1,3.07,3.02,3.07c2.04,0,3.02-1.46,3.02-3.07
		C72.55,79.55,71.56,78.08,69.52,78.08z"/>
</g>
</svg>
