<?xml version="1.0" encoding="UTF-8"?>
<svg width="19px" height="17px" viewBox="0 0 19 17" version="1.1" xmlns="http://www.w3.org/2000/svg" xmlns:xlink="http://www.w3.org/1999/xlink">
    <g id="Artboard" stroke="none" stroke-width="1" fill="none" fill-rule="evenodd">
        <path d="M8.57143879,2.78569853 L8.57143879,14.9285702 C8.57143879,15.3191956 8.24777769,15.6428567 7.85715222,15.6428567 C7.66741985,15.6428567 7.48884821,15.5647316 7.35491948,15.4308029 L3.63839719,11.7142806 L0.714286566,11.7142806 C0.3236611,11.7142806 0,11.3906195 0,10.999994 L0,6.71427464 C0,6.32364918 0.3236611,5.99998808 0.714286566,5.99998808 L3.63839719,5.99998808 L7.35491948,2.28346579 C7.48884821,2.14953706 7.66741985,2.07141197 7.85715222,2.07141197 C8.24777769,2.07141197 8.57143879,2.39507307 8.57143879,2.78569853 Z M12.8571582,8.85713434 C12.8571582,9.9732071 12.1763538,11.0557977 11.1272454,11.4799053 C11.0379596,11.5245482 10.937513,11.535709 10.8482272,11.535709 C10.4576018,11.535709 10.1339407,11.2232086 10.1339407,10.8214224 C10.1339407,9.9732071 11.4285851,10.2075824 11.4285851,8.85713434 C11.4285851,7.5066863 10.1339407,7.74106158 10.1339407,6.89284629 C10.1339407,6.49106009 10.4576018,6.17855972 10.8482272,6.17855972 C10.937513,6.17855972 11.0379596,6.18972045 11.1272454,6.23436336 C12.1763538,6.64731028 12.8571582,7.74106158 12.8571582,8.85713434 Z M15.7143044,8.85713434 C15.7143044,11.122762 14.3526957,13.2321396 12.2544789,14.113837 C12.1651931,14.1473192 12.0647465,14.1696407 11.9754607,14.1696407 C11.5736745,14.1696407 11.2500134,13.8459796 11.2500134,13.4553541 C11.2500134,13.1428537 11.4285851,12.9307999 11.6852818,12.7968712 C11.9866214,12.640621 12.2656396,12.5066923 12.5334971,12.3057992 C13.6384091,11.5022268 14.2857313,10.2187431 14.2857313,8.85713434 C14.2857313,7.49552558 13.6384091,6.2120419 12.5334971,5.40846952 C12.2656396,5.20757642 11.9866214,5.07364769 11.6852818,4.9173975 C11.4285851,4.78346877 11.2500134,4.57141495 11.2500134,4.25891457 C11.2500134,3.86828911 11.5736745,3.54462801 11.9643,3.54462801 C12.0647465,3.54462801 12.1651931,3.56694946 12.2544789,3.60043165 C14.3526957,4.48212913 15.7143044,6.59150664 15.7143044,8.85713434 Z M18.5714507,8.85713434 C18.5714507,12.2834777 16.5290376,15.38616 13.3817124,16.736608 C13.2924266,16.7700902 13.19198,16.7924117 13.0915335,16.7924117 C12.700908,16.7924117 12.3772469,16.4687506 12.3772469,16.0781251 C12.3772469,15.754464 12.5446578,15.5758924 12.8125153,15.4196422 C12.9687655,15.3303563 13.1473371,15.2745527 13.314748,15.1852669 C13.6272484,15.017856 13.9397488,14.8281236 14.2299277,14.6160698 C16.060287,13.2656217 17.1428776,11.1339228 17.1428776,8.85713434 C17.1428776,6.58034591 16.060287,4.44864694 14.2299277,3.09819891 C13.9397488,2.88614508 13.6272484,2.69641271 13.314748,2.5290018 C13.1473371,2.43971598 12.9687655,2.38391234 12.8125153,2.29462652 C12.5446578,2.13837633 12.3772469,1.95980469 12.3772469,1.63614359 C12.3772469,1.24551813 12.700908,0.921857025 13.0915335,0.921857025 C13.19198,0.921857025 13.2924266,0.944178481 13.3817124,0.977660663 C16.5290376,2.3281087 18.5714507,5.43079097 18.5714507,8.85713434 Z" id="volume-up---FontAwesome" fill="#000000"></path>
        <path d="M8.57143879,2.78569853 L8.57143879,14.9285702 C8.57143879,15.3191956 8.24777769,15.6428567 7.85715222,15.6428567 C7.66741985,15.6428567 7.48884821,15.5647316 7.35491948,15.4308029 L3.63839719,11.7142806 L0.714286566,11.7142806 C0.3236611,11.7142806 0,11.3906195 0,10.999994 L0,6.71427464 C0,6.32364918 0.3236611,5.99998808 0.714286566,5.99998808 L3.63839719,5.99998808 L7.35491948,2.28346579 C7.48884821,2.14953706 7.66741985,2.07141197 7.85715222,2.07141197 C8.24777769,2.07141197 8.57143879,2.39507307 8.57143879,2.78569853 Z" id="volume-off---FontAwesome" fill="#000000"></path>
    </g>
</svg>
